<svg version="1.1" xmlns="http://www.w3.org/2000/svg" xmlns:xlink="http://www.w3.org/1999/xlink" width="6.82666in" height="6.82666in" viewBox="0,0,256,256"><g fill="none" fill-rule="none" stroke="none" stroke-width="1" stroke-linecap="butt" stroke-linejoin="miter" stroke-miterlimit="10" stroke-dasharray="" stroke-dashoffset="0" font-family="none" font-weight="none" font-size="none" text-anchor="none" style="mix-blend-mode: normal"><g transform="scale(37.50004,37.50004)"><g id="Layer_x0020_1" fill="#0275fe" fill-rule="nonzero"><path d="M3.2,5.76c0,0.11782 0.09552,0.21333 0.21333,0.21333c0.11782,0 0.21333,-0.09552 0.21333,-0.21333v-4.69334c0,-0.11782 -0.09552,-0.21334 -0.21333,-0.21334c-0.11782,0 -0.21333,0.09552 -0.21333,0.21334z"></path><path d="M1.72962,2.4487c-0.0833,0.0833 -0.0833,0.21837 0,0.30167c0.0833,0.0833 0.21837,0.0833 0.30167,0l1.38204,-1.38204l1.38204,1.38204c0.0833,0.0833 0.21837,0.0833 0.30167,0c0.0833,-0.0833 0.0833,-0.21837 0,-0.30167l-1.53163,-1.53163l-0.00123,-0.00126c-0.08331,-0.08331 -0.21839,-0.08331 -0.3017,0l0.00002,0.00002l-1.53288,1.53287z"></path></g><rect x="0" y="0" width="6.82666" height="6.82666" fill="none" fill-rule="evenodd"></rect></g></g></svg>