
<svg width="16" height="16" viewBox="0 0 16 16" fill="none" xmlns="http://www.w3.org/2000/svg">
<path fill-rule="evenodd" clip-rule="evenodd" d="M14.1719 8.5L12.3281 10.3281C12.2344 10.4323 12.1875 10.5521 12.1875 10.6875C12.1875 10.8229 12.2344 10.9427 12.3281 11.0469C12.3802 11.0885 12.4375 11.1224 12.5 11.1484C12.5625 11.1745 12.625 11.1875 12.6875 11.1875C12.75 11.1875 12.8125 11.1745 12.875 11.1484C12.9375 11.1224 12.9948 11.0885 13.0469 11.0469L16 8.01562L13.0469 4.98438C12.9427 4.88021 12.8229 4.82812 12.6875 4.82812C12.5521 4.82812 12.4323 4.88021 12.3281 4.98438C12.2344 5.07813 12.1875 5.19531 12.1875 5.33594C12.1875 5.47656 12.2344 5.59375 12.3281 5.6875L14.1406 7.5H5.51562C5.36979 7.5 5.25 7.54687 5.15625 7.64062C5.0625 7.73438 5.01562 7.85417 5.01562 8C5.01562 8.13542 5.0625 8.2526 5.15625 8.35156C5.25 8.45052 5.36979 8.5 5.51562 8.5H14.1719ZM1 0C0.729165 0 0.494793 0.0963532 0.296875 0.289062C0.0989571 0.481772 0 0.718749 0 1V15C0 15.2813 0.0989571 15.5182 0.296875 15.7109C0.494793 15.9036 0.729165 16 1 16H9.5C9.78125 16 10.0182 15.9036 10.2109 15.7109C10.4036 15.5182 10.5 15.2813 10.5 15V10.4844H9.5V14.3906C9.5 14.5573 9.4401 14.7005 9.32031 14.8203C9.20052 14.9401 9.05729 15 8.89062 15H1.60938C1.44271 15 1.30208 14.9401 1.1875 14.8203C1.07292 14.7005 1.01562 14.5573 1.01562 14.3906L1.03125 1.60938C1.03125 1.44271 1.08854 1.29948 1.20312 1.17969C1.31771 1.0599 1.45833 1 1.625 1H8.89062C9.05729 1 9.20052 1.0599 9.32031 1.17969C9.4401 1.29948 9.5 1.44271 9.5 1.60938V5.5H10.5V1C10.5 0.718749 10.4036 0.481772 10.2109 0.289062C10.0182 0.0963532 9.78125 0 9.5 0H1Z" fill="#0275fe"/>
</svg>
