<svg height="14" viewBox="0 0 13 14" width="13" xmlns="http://www.w3.org/2000/svg" xmlns:xlink="http://www.w3.org/1999/xlink"><mask id="a" fill="#fff"><path d="m0 .997h12.607v14.003h-12.607z" fill="#fff" fill-rule="evenodd"/></mask><g fill="#0275fe" fill-rule="evenodd"><path d="m11.676 9.352a1.887 1.887 0 0 1 -1.883 1.883 9.942 9.942 0 0 0 -5.817 1.882l-.676.487v-1.904a.47.47 0 0 0 -.466-.465 1.887 1.887 0 0 1 -1.882-1.883v-5.52c0-1.037.846-1.883 1.882-1.883h6.96c1.036 0 1.882.846 1.882 1.882zm.931-5.52a2.834 2.834 0 0 0 -2.835-2.836h-6.938a2.834 2.834 0 0 0 -2.834 2.835v5.521a2.84 2.84 0 0 0 2.348 2.792v2.39c0 .17.105.34.254.423.063.043.148.043.211.043.106 0 .19-.02.275-.085l1.417-1.036a8.909 8.909 0 0 1 5.267-1.714 2.834 2.834 0 0 0 2.835-2.834v-5.5z" mask="url(#a)" transform="translate(0 -.997)"/><path d="m6.303 2.982c-.782 0-1.543.508-1.543 1.481 0 .255.21.465.465.465a.47.47 0 0 0 .466-.465c0-.508.55-.529.612-.529.064 0 .614.021.614.53v.104a.537.537 0 0 1 -.296.488l-.424.232a.686.686 0 0 0 -.359.614v.38c0 .255.212.465.465.465a.469.469 0 0 0 .466-.465v-.232l.295-.148a1.47 1.47 0 0 0 .784-1.312v-.127c0-.973-.784-1.48-1.545-1.48m0 4.294c-.761 0-.761 1.184 0 1.184s.761-1.184 0-1.184"/></g></svg>