
<svg width="16" height="16" viewBox="0 0 16 16" fill="none" xmlns="http://www.w3.org/2000/svg">
<path fill-rule="evenodd" clip-rule="evenodd" d="M9.64229 10.4774C8.62433 11.3104 7.32309 11.8102 5.90511 11.8102C2.64381 11.8102 0 9.16642 0 5.90511C0 2.64381 2.64381 0 5.90511 0C9.16642 0 11.8102 2.64381 11.8102 5.90511C11.8102 7.3231 11.3104 8.62435 10.4774 9.64231L15.8266 14.992C16.0572 15.2226 16.0572 15.5965 15.8266 15.8271C15.5959 16.0577 15.222 16.0576 14.9914 15.827L9.64229 10.4774ZM1.18102 5.90511C1.18102 8.51416 3.29607 10.6292 5.90511 10.6292C8.51416 10.6292 10.6292 8.51416 10.6292 5.90511C10.6292 3.29607 8.51416 1.18102 5.90511 1.18102C3.29607 1.18102 1.18102 3.29607 1.18102 5.90511Z" fill="#0275fe"/>
</svg>
