
<svg height="16" viewBox="0 0 10 16" width="10" xmlns="http://www.w3.org/2000/svg"><path d="m1101.55193 88.2614014-1.185-2.152c-.251-.441-.803-.607-1.255-.377-.688.283-1.64.852-2.532-2.062-.891-2.915.208-3.002.937-3.152.503-.062.869-.508.83-1.014l-.222-2.446c-.037-.311-.051-.789-.577-.979s-2.181-.152-3.017 1.419c-.835 1.571-.616 4.15.177 6.744.794 2.593 2.065 4.836 3.619 5.662 1.554.827 3.047-.171 3.285-.492s.083-.873-.06-1.151z" fill="none" stroke="#0275fe" stroke-linecap="round" stroke-linejoin="round" transform="translate(-1093 -75)"/></svg>