
<svg width="16" height="16" viewBox="0 0 16 16" fill="none" xmlns="http://www.w3.org/2000/svg">
<path fill-rule="evenodd" clip-rule="evenodd" d="M7.53788 15.7473C7.66802 15.9778 7.96484 16.0691 8.19625 15.9432L10.2436 14.829C9.81689 14.0733 10.0231 13.1601 10.7042 12.7895C11.3852 12.4189 12.2833 12.7311 12.71 13.4868L14.7573 12.3726C14.986 12.2482 15.0691 11.9548 14.937 11.7207L8.46212 0.252722C8.33198 0.0222355 8.03516 -0.0691269 7.80375 0.0568075L5.7564 1.17098C6.18311 1.92674 5.97691 2.83987 5.29584 3.21051C4.61477 3.58115 3.71675 3.26894 3.29004 2.51318L1.24269 3.62736C1.01402 3.7518 0.930851 4.04519 1.06304 4.27932L7.53788 15.7473ZM12.9447 12.1605C12.1636 11.543 11.0906 11.3807 10.1865 11.8727C9.28247 12.3646 8.85401 13.344 8.97359 14.3216L8.19346 14.7462L2.2752 4.26401L3.05533 3.83946C3.83639 4.45705 4.90944 4.61933 5.81349 4.12735C6.71753 3.63536 7.14599 2.65595 7.02641 1.67838L7.80655 1.25383L13.7248 11.736L12.9447 12.1605Z" fill="#0275fe"/>
</svg>
