<?xml version="1.0" encoding="UTF-8"?>
<!DOCTYPE svg PUBLIC "-//W3C//DTD SVG 1.1//EN" "http://www.w3.org/Graphics/SVG/1.1/DTD/svg11.dtd">
<!-- Creator: CorelDRAW 2018 -->
<svg xmlns="http://www.w3.org/2000/svg" xml:space="preserve" width="600px" height="600px" version="1.1" style="shape-rendering:geometricPrecision; text-rendering:geometricPrecision; image-rendering:optimizeQuality; fill-rule:evenodd; clip-rule:evenodd"
viewBox="0 0 299.84 299.77"
 xmlns:xlink="http://www.w3.org/1999/xlink">
 <defs>
  <style type="text/css">
   <![CDATA[
    .fil4 {fill:black}
    .fil0 {fill:#6B88FF}
    .fil7 {fill:#76748E}
    .fil2 {fill:#7F98FF}
    .fil9 {fill:#8885A5}
    .fil6 {fill:#B9EBFF}
    .fil5 {fill:#D5F2FE}
    .fil10 {fill:#DADDED}
    .fil1 {fill:#F23838}
    .fil3 {fill:#FC5656}
    .fil8 {fill:#FDEF85}
   ]]>
  </style>
 </defs>
 <g id="Слой_x0020_1">
  <metadata id="CorelCorpID_0Corel-Layer"/>
  <g id="_549655056">
   <g>
    <path class="fil0" d="M208.07 190.28c-3.08,2.93 -9.09,19.92 -29.78,34.11 -11.34,7.78 -33.34,16.94 -46.95,16.89 1.02,-0.97 27.06,-10.53 36.71,-21.86 2.36,-2.78 4.85,-4.62 7.1,-7.54 8.26,-10.72 10.35,-13.22 16.06,-26.89l16.86 5.29z"/>
    <polygon class="fil0" points="27.89,273.46 4.32,273.47 4.32,246.67 27.89,246.66 "/>
   </g>
   <g>
    <path class="fil1" d="M48.1 237.41c-2.42,1.42 -18.02,0.49 -22.15,0.47 -3.86,-0.02 -19.12,0.74 -21.39,-0.35l-0.24 -104.95 23.58 0.03 0 104.55 20.2 0.25z"/>
    <polygon class="fil1" points="27.9,27.18 4.32,27.22 4.32,8.88 27.9,8.92 "/>
   </g>
   <g>
    <path class="fil2" d="M131.34 241.28c13.61,0.05 35.61,-9.11 46.95,-16.89 20.69,-14.19 26.7,-31.18 29.78,-34.11 2.72,-0.38 13.86,2.35 17.83,2.84 6.43,0.79 12.72,0.82 19.12,1.52l-1.13 18.17c-10.41,0.32 -21,-0.16 -31.42,0.04 -17.97,0.33 -20.17,21.92 1.23,33.97 9.24,5.2 16.2,5.13 26.56,5.13 -1.87,9.61 -9.64,17.46 -18.82,20.27 -7.48,2.29 -28.13,1.25 -37.03,1.25 -25.47,0 -50.94,0 -76.4,0 3.49,-20.75 -2.65,-21.67 -2.84,-27.43 4.69,-0.54 9.2,-1.06 13.82,-2.05 3.41,-0.73 9.33,-2.73 12.35,-2.71z"/>
    <path class="fil2" d="M27.89 273.46l0 -26.8 13.44 -0.01c-1.25,4.47 -2.92,6.77 -3.6,11.99 -0.78,5.93 0.01,9.17 0.89,14.83l-10.73 -0.01z"/>
   </g>
   <g>
    <path class="fil3" d="M48.1 237.41l-20.2 -0.25 0 -104.55c31,-0.47 61.08,-0.48 89.56,12.25 23.95,10.71 49.59,31.92 65.45,36.49 -1.28,6.42 -8.64,17.87 -12.88,23.11 -5.68,7.02 -10.59,11.4 -18.21,16.85 -12.08,8.63 -39.05,17.87 -53.91,16.17 -8.22,-6.39 -13.79,-10.05 -25.19,-9.87 -15.29,0.24 -21.23,8.83 -24.62,9.8z"/>
    <path class="fil3" d="M27.9 27.18l0 -18.26 133.71 -0.02c2.58,0.61 19.05,25.81 28.93,34.23 6.04,5.14 13.83,8.41 21.69,9.78 10.03,1.76 21.1,-0.39 30.52,0.96l0.53 6.81c-20.73,0 -37.2,1.31 -57.02,-5.67 -15.08,-5.32 -26.16,-15.06 -41.13,-20.86 -19.39,-7.51 -34.33,-6.95 -54.86,-6.95 -20.75,0 -41.63,0.23 -62.37,-0.02z"/>
    <path class="fil3" d="M278.91 99.54c-0.92,-3.83 -0.36,-8.86 -0.36,-12.9 9.51,-1.32 2.25,-15.38 -1.66,-19.36 -7.26,-7.39 -14.62,-6.6 -24.47,-6.6l-0.97 -7.02c9.75,-0.01 19.9,-1.02 27.97,5.25 7.01,5.44 10.99,12.4 11.3,21.9 0.36,10.89 0.02,22.39 0.02,33.35 0,9.14 2.77,22.73 -7.61,25.98l0.01 -33.6c0.01,-5.73 -0.23,-4.79 -4.23,-7z"/>
   </g>
   <g>
    <path class="fil4" d="M80.26 237.74c-6.15,-5.08 -33.85,1.33 -34.11,25.51 -0.27,24.62 28.13,31.25 34.05,26.09 8.13,0.3 20.13,-11.6 20.28,-25.5 0.07,-6.3 -2.1,-12.34 -5.86,-17.23 -2.65,-3.46 -9.73,-9.03 -14.36,-8.87zm163.1 -15.94c-6.39,-0.73 -16,-0.18 -22.7,-0.18 -5.48,0 -19.02,-1.08 -12.11,8.74 7.69,10.95 19.37,13.99 32.84,12.7l1.97 -21.26zm-35.29 -31.52l-16.86 -5.29c-5.71,13.67 -7.8,16.17 -16.06,26.89 -2.25,2.92 -4.74,4.76 -7.1,7.54 -9.65,11.33 -35.69,20.89 -36.71,21.86 -3.02,-0.02 -8.94,1.98 -12.35,2.71 -4.62,0.99 -9.13,1.51 -13.82,2.05 0.19,5.76 6.33,6.68 2.84,27.43 25.46,0 50.93,0 76.4,0 8.9,0 29.55,1.04 37.03,-1.25 9.18,-2.81 16.95,-10.66 18.82,-20.27 -10.36,0 -17.32,0.07 -26.56,-5.13 -21.4,-12.05 -19.2,-33.64 -1.23,-33.97 10.42,-0.2 21.01,0.28 31.42,-0.04l1.13 -18.17c-6.4,-0.7 -12.69,-0.73 -19.12,-1.52 -3.97,-0.49 -15.11,-3.22 -17.83,-2.84zm33.32 -145.44c-0.4,-11.01 -12.72,-24.92 -21.57,-29.82 -14.75,-8.16 -29.86,-6.11 -46.23,-6.11 3.47,5.88 18.76,24.91 23.83,28.5 12.78,9.07 28.87,8.01 43.97,7.43zm37.52 54.7c4,2.21 4.24,1.27 4.23,7l-0.01 33.6c10.38,-3.25 7.61,-16.84 7.61,-25.98 0,-10.96 0.34,-22.46 -0.02,-33.35 -0.31,-9.5 -4.29,-16.46 -11.3,-21.9 -8.07,-6.27 -18.22,-5.26 -27.97,-5.25l0.97 7.02c9.85,0 17.21,-0.79 24.47,6.6 3.91,3.98 11.17,18.04 1.66,19.36 -7.17,-0.45 -1.8,-6.66 -8.03,-12.99 -5.24,-5.32 -10.29,-3.93 -17.7,-3.93 0.04,2.24 0.52,2.41 0.61,4.65 0.07,1.86 -0.17,4.05 -0.03,5.88 0.16,2.12 0.6,2.63 0.6,5.24l0.57 16.39c0,6.39 0.6,8.52 0.6,11.09 0.02,15.21 -0.01,30.42 -0.01,45.62 0,7.71 -0.59,14.7 -0.59,22.22l-0.56 16.4c-0.04,2.47 -0.54,2.94 -0.63,5.21l-2.27 32.23c-1.57,13.98 -0.16,29.39 -16.4,40.9 -12.23,8.66 -24.63,7 -39.19,7 -30.6,0 -61.2,0 -91.8,0 -2.44,4.86 -7.04,8.94 -11.57,11.82 -15.26,9.73 -35.8,6.22 -48.22,-9.91l-1.6 -1.91c-9.16,0 -18.33,0 -27.49,0 -3.23,0 -10.65,0.93 -13.03,-0.99 -2.93,-2.36 -1.97,-8.02 2.51,-8.09l23.57 -0.01 10.73 0.01c-0.88,-5.66 -1.67,-8.9 -0.89,-14.83 0.68,-5.22 2.35,-7.52 3.6,-11.99l-13.44 0.01 -23.57 0.01c-2.58,-0.17 -4.14,-1.73 -4.13,-4.47 0,-3.49 1.88,-3.74 4.37,-4.67 2.27,1.09 17.53,0.33 21.39,0.35 4.13,0.02 19.73,0.95 22.15,-0.47 3.39,-0.97 9.33,-9.56 24.62,-9.8 11.4,-0.18 16.97,3.48 25.19,9.87 14.86,1.7 41.83,-7.54 53.91,-16.17 7.62,-5.45 12.53,-9.83 18.21,-16.85 4.24,-5.24 11.6,-16.69 12.88,-23.11 -15.86,-4.57 -41.5,-25.78 -65.45,-36.49 -28.48,-12.73 -58.56,-12.72 -89.56,-12.25l-23.58 -0.03c-5,-0.02 -6.35,-7.77 0.29,-9.07l1.46 0.3 56.72 0.12c74.91,5.25 81.48,34.19 130.81,52.37 11.83,4.36 39.33,10.95 51.62,9.21 1.11,-4.08 0.95,-23.1 1.05,-28.67 0.39,-23.7 0.02,-65.5 -2.35,-87.18 -7.2,-1.18 -25.61,0.74 -40.04,-1.29 -28.92,-4.07 -37.45,-15 -57.99,-24.45 -6.78,-3.11 -26.49,-9.07 -33.37,-7.38 -2.97,-1.62 -96.41,-0.67 -108.2,-0.56 -3.72,-0.79 -4.09,-1.69 -4.09,-5.44 0.52,-1.93 1.04,-1.93 2.49,-3.36l1.6 0.04 23.58 -0.04c20.74,0.25 41.62,0.02 62.37,0.02 20.53,0 35.47,-0.56 54.86,6.95 14.97,5.8 26.05,15.54 41.13,20.86 19.82,6.98 36.29,5.67 57.02,5.67l-0.53 -6.81c-9.42,-1.35 -20.49,0.8 -30.52,-0.96 -7.86,-1.37 -15.65,-4.64 -21.69,-9.78 -9.88,-8.42 -26.35,-33.62 -28.93,-34.23l-133.71 0.02 -23.58 -0.04 -1.65 -0.03c-1.96,-2.24 -3.56,-3.16 -2.11,-6.61 1.17,-2.76 4.63,-2.11 7.27,-2.1l171.9 0c12.43,0 24.62,-1.12 35.6,2.99 13.32,4.99 24.16,14.4 30.49,26.81 1.74,3.42 4.6,11.2 4.66,14.64 17.19,0 23.09,-0.9 36.26,8.76 4.28,3.14 7.58,8.54 9.75,13.06 3.18,6.64 3.11,11.56 3.11,19.69 0,14.94 0.52,30.82 0.02,45.63 -0.41,12.16 -17.15,23.13 -25.03,15.63l-0.13 -45.34c2.14,-1.93 1.67,-1.96 4.45,-2.47z"/>
    <path class="fil4" d="M71.67 282.46c-23.29,-3.01 -19.88,-35.06 -8.8,-27.91 4.05,4.92 -3.5,8.54 2.86,15.7 9.05,10.19 23.76,-3.37 15.45,-13.11 -5.36,-6.29 -10.5,-1.18 -11.86,-7.5 -0.17,-2.95 0.32,-3.16 2.41,-4.87 10.84,-1.29 20.39,7.74 20.56,18.48 0.18,11.6 -9.35,19.71 -20.62,19.21z"/>
   </g>
   <g>
    <path class="fil5" d="M62.79 123.93c-1.72,-1.24 1.41,-0.37 -2.29,-1.04 -0.02,-0.01 -2.19,0.02 -2.39,0.02l-30.24 0.02 0 -85.96c10.68,-0.04 80.6,0.7 84.65,-0.43 6.88,-1.69 26.59,4.27 33.37,7.38 20.54,9.45 29.07,20.38 57.99,24.45 14.43,2.03 32.84,0.11 40.04,1.29 2.37,21.68 2.74,63.48 2.35,87.18 -0.1,5.57 0.06,24.59 -1.05,28.67 -12.29,1.74 -39.79,-4.85 -51.62,-9.21 -49.33,-18.18 -55.9,-47.12 -130.81,-52.37z"/>
    <path class="fil5" d="M241.39 44.84c-15.1,0.58 -31.19,1.64 -43.97,-7.43 -5.07,-3.59 -20.36,-22.62 -23.83,-28.5 16.37,0 31.48,-2.05 46.23,6.11 8.85,4.9 21.17,18.81 21.57,29.82z"/>
   </g>
   <path class="fil6" d="M62.79 123.93l-56.72 -0.12 -1.46 -0.3 -0.29 -87.53c11.79,-0.11 105.23,-1.06 108.2,0.56 -4.05,1.13 -73.97,0.39 -84.65,0.43l0 85.96 30.24 -0.02c0.2,0 2.37,-0.03 2.39,-0.02 3.7,0.67 0.57,-0.2 2.29,1.04z"/>
   <path class="fil7" d="M80.26 237.74c-3.5,0.12 -7.28,3.75 -8.53,7.03 -2.09,1.71 -2.58,1.92 -2.41,4.87 -2.69,0.65 -4.22,1.85 -6.46,3.27l0.01 1.64c-11.08,-7.15 -14.49,24.9 8.8,27.91 1.65,3.18 4.94,6.63 8.53,6.88 -5.92,5.16 -34.32,-1.47 -34.05,-26.09 0.26,-24.18 27.96,-30.59 34.11,-25.51z"/>
   <path class="fil8" d="M208.55 230.36c-6.91,-9.82 6.63,-8.74 12.11,-8.74 6.7,0 16.31,-0.55 22.7,0.18l-1.97 21.26c-13.47,1.29 -25.15,-1.75 -32.84,-12.7z"/>
   <path class="fil9" d="M80.2 289.34c-3.59,-0.25 -6.88,-3.7 -8.53,-6.88 11.27,0.5 20.8,-7.61 20.62,-19.21 -0.17,-10.74 -9.72,-19.77 -20.56,-18.48 1.25,-3.28 5.03,-6.91 8.53,-7.03 4.63,-0.16 11.71,5.41 14.36,8.87 3.76,4.89 5.93,10.93 5.86,17.23 -0.15,13.9 -12.15,25.8 -20.28,25.5z"/>
   <path class="fil10" d="M62.87 254.55l-0.01 -1.64c2.24,-1.42 3.77,-2.62 6.46,-3.27 1.36,6.32 6.5,1.21 11.86,7.5 8.31,9.74 -6.4,23.3 -15.45,13.11 -6.36,-7.16 1.19,-10.78 -2.86,-15.7z"/>
  </g>
 </g>
</svg>
